<svg width="100" height="113" viewBox="0 0 100 113" fill="none" xmlns="http://www.w3.org/2000/svg">
<rect x="2.5" y="2.5" width="95" height="95" stroke="black" stroke-width="5"/>
<path d="M10.8807 111V103.727H15.2699V104.509H11.7614V106.966H15.0426V107.747H11.7614V110.219H15.3267V111H10.8807ZM20.6072 106.767L19.8544 106.98C19.8071 106.855 19.7372 106.733 19.6449 106.614C19.5549 106.494 19.4318 106.394 19.2756 106.316C19.1193 106.238 18.9193 106.199 18.6754 106.199C18.3416 106.199 18.0634 106.276 17.8409 106.43C17.6207 106.581 17.5107 106.774 17.5107 107.009C17.5107 107.217 17.5864 107.381 17.7379 107.502C17.8894 107.623 18.1262 107.723 18.4482 107.804L19.2578 108.003C19.7455 108.121 20.1089 108.302 20.348 108.546C20.5871 108.788 20.7067 109.099 20.7067 109.48C20.7067 109.793 20.6167 110.072 20.4368 110.318C20.2592 110.564 20.0107 110.759 19.6911 110.901C19.3714 111.043 18.9998 111.114 18.576 111.114C18.0196 111.114 17.5592 110.993 17.1946 110.751C16.83 110.51 16.5992 110.157 16.5021 109.693L17.2976 109.494C17.3733 109.788 17.5166 110.008 17.7273 110.155C17.9403 110.302 18.2185 110.375 18.5618 110.375C18.9524 110.375 19.2625 110.292 19.4922 110.126C19.7242 109.958 19.8402 109.757 19.8402 109.523C19.8402 109.333 19.7739 109.175 19.6413 109.047C19.5088 108.917 19.3052 108.82 19.0305 108.756L18.1214 108.543C17.6219 108.424 17.255 108.241 17.0206 107.992C16.7886 107.741 16.6726 107.428 16.6726 107.051C16.6726 106.743 16.759 106.471 16.9318 106.234C17.107 105.998 17.3449 105.812 17.6456 105.677C17.9486 105.542 18.2919 105.474 18.6754 105.474C19.2152 105.474 19.639 105.593 19.9467 105.83C20.2569 106.066 20.477 106.379 20.6072 106.767ZM24.3404 105.545V106.256H21.5137V105.545H24.3404ZM22.3375 104.239H23.1756V109.438C23.1756 109.674 23.2099 109.852 23.2786 109.97C23.3496 110.086 23.4396 110.164 23.5485 110.205C23.6597 110.242 23.7769 110.261 23.9 110.261C23.9924 110.261 24.0681 110.257 24.1273 110.247C24.1865 110.235 24.2338 110.226 24.2694 110.219L24.4398 110.972C24.383 110.993 24.3037 111.014 24.2019 111.036C24.1001 111.059 23.9711 111.071 23.8148 111.071C23.5781 111.071 23.3461 111.02 23.1188 110.918C22.8939 110.817 22.7069 110.661 22.5577 110.453C22.4109 110.245 22.3375 109.982 22.3375 109.665V104.239ZM27.2061 111.128C26.8605 111.128 26.5468 111.063 26.2651 110.933C25.9834 110.8 25.7596 110.609 25.5939 110.361C25.4282 110.11 25.3453 109.807 25.3453 109.452C25.3453 109.139 25.4069 108.886 25.53 108.692C25.6531 108.495 25.8176 108.341 26.0236 108.23C26.2296 108.119 26.4569 108.036 26.7054 107.982C26.9564 107.925 27.2085 107.88 27.4618 107.847C27.7933 107.804 28.062 107.772 28.2679 107.751C28.4763 107.727 28.6278 107.688 28.7225 107.634C28.8195 107.579 28.8681 107.484 28.8681 107.349V107.321C28.8681 106.971 28.7722 106.698 28.5804 106.504C28.391 106.31 28.1034 106.213 27.7175 106.213C27.3174 106.213 27.0037 106.301 26.7765 106.476C26.5492 106.651 26.3894 106.838 26.2971 107.037L25.5016 106.753C25.6436 106.421 25.833 106.163 26.0698 105.979C26.3089 105.792 26.5693 105.661 26.851 105.588C27.1351 105.512 27.4145 105.474 27.6891 105.474C27.8643 105.474 28.0655 105.496 28.2928 105.538C28.5224 105.579 28.7438 105.663 28.9569 105.79C29.1723 105.918 29.351 106.111 29.4931 106.369C29.6351 106.627 29.7061 106.973 29.7061 107.406V111H28.8681V110.261H28.8255C28.7686 110.38 28.6739 110.506 28.5414 110.641C28.4088 110.776 28.2324 110.891 28.0123 110.986C27.7921 111.08 27.5234 111.128 27.2061 111.128ZM27.334 110.375C27.6654 110.375 27.9448 110.31 28.1721 110.18C28.4017 110.049 28.5745 109.881 28.6905 109.675C28.8089 109.469 28.8681 109.253 28.8681 109.026V108.259C28.8326 108.301 28.7544 108.34 28.6337 108.376C28.5153 108.409 28.378 108.438 28.2218 108.464C28.0679 108.488 27.9176 108.509 27.7708 108.528C27.6264 108.545 27.5092 108.559 27.4192 108.571C27.2014 108.599 26.9978 108.646 26.8084 108.71C26.6214 108.771 26.4699 108.865 26.3539 108.99C26.2402 109.113 26.1834 109.281 26.1834 109.494C26.1834 109.786 26.2911 110.006 26.5066 110.155C26.7244 110.302 27.0002 110.375 27.334 110.375ZM31.3494 111V103.727H32.1875V106.412H32.2585C32.3201 106.317 32.4053 106.196 32.5142 106.05C32.6255 105.901 32.7841 105.768 32.9901 105.652C33.1984 105.534 33.4801 105.474 33.8352 105.474C34.2945 105.474 34.6993 105.589 35.0497 105.819C35.4001 106.049 35.6735 106.374 35.87 106.795C36.0665 107.217 36.1648 107.714 36.1648 108.287C36.1648 108.865 36.0665 109.365 35.87 109.789C35.6735 110.21 35.4013 110.537 35.0533 110.769C34.7053 110.999 34.304 111.114 33.8494 111.114C33.4991 111.114 33.2185 111.056 33.0078 110.94C32.7971 110.821 32.6349 110.687 32.5213 110.538C32.4077 110.387 32.3201 110.261 32.2585 110.162H32.1591V111H31.3494ZM32.1733 108.273C32.1733 108.685 32.2337 109.048 32.3544 109.363C32.4751 109.675 32.6515 109.92 32.8835 110.098C33.1155 110.273 33.3996 110.361 33.7358 110.361C34.0862 110.361 34.3786 110.268 34.6129 110.084C34.8497 109.897 35.0272 109.646 35.1456 109.331C35.2663 109.014 35.3267 108.661 35.3267 108.273C35.3267 107.889 35.2675 107.544 35.1491 107.236C35.0331 106.926 34.8568 106.681 34.62 106.501C34.3857 106.318 34.0909 106.227 33.7358 106.227C33.3949 106.227 33.1084 106.314 32.8764 106.487C32.6444 106.657 32.4692 106.896 32.3509 107.204C32.2325 107.509 32.1733 107.866 32.1733 108.273ZM38.2848 103.727V111H37.4467V103.727H38.2848ZM39.8198 111V105.545H40.6578V111H39.8198ZM40.2459 104.636C40.0826 104.636 39.9417 104.581 39.8233 104.469C39.7073 104.358 39.6493 104.224 39.6493 104.068C39.6493 103.912 39.7073 103.778 39.8233 103.667C39.9417 103.556 40.0826 103.5 40.2459 103.5C40.4093 103.5 40.5489 103.556 40.665 103.667C40.7833 103.778 40.8425 103.912 40.8425 104.068C40.8425 104.224 40.7833 104.358 40.665 104.469C40.5489 104.581 40.4093 104.636 40.2459 104.636ZM46.0565 106.767L45.3036 106.98C45.2563 106.855 45.1864 106.733 45.0941 106.614C45.0041 106.494 44.881 106.394 44.7248 106.316C44.5685 106.238 44.3685 106.199 44.1246 106.199C43.7908 106.199 43.5127 106.276 43.2901 106.43C43.07 106.581 42.9599 106.774 42.9599 107.009C42.9599 107.217 43.0356 107.381 43.1871 107.502C43.3387 107.623 43.5754 107.723 43.8974 107.804L44.707 108.003C45.1947 108.121 45.5581 108.302 45.7972 108.546C46.0363 108.788 46.1559 109.099 46.1559 109.48C46.1559 109.793 46.0659 110.072 45.886 110.318C45.7085 110.564 45.4599 110.759 45.1403 110.901C44.8207 111.043 44.449 111.114 44.0252 111.114C43.4689 111.114 43.0084 110.993 42.6438 110.751C42.2792 110.51 42.0484 110.157 41.9513 109.693L42.7468 109.494C42.8226 109.788 42.9658 110.008 43.1765 110.155C43.3896 110.302 43.6677 110.375 44.011 110.375C44.4016 110.375 44.7118 110.292 44.9414 110.126C45.1734 109.958 45.2894 109.757 45.2894 109.523C45.2894 109.333 45.2231 109.175 45.0906 109.047C44.958 108.917 44.7544 108.82 44.4798 108.756L43.5707 108.543C43.0711 108.424 42.7042 108.241 42.4698 107.992C42.2378 107.741 42.1218 107.428 42.1218 107.051C42.1218 106.743 42.2082 106.471 42.381 106.234C42.5562 105.998 42.7942 105.812 43.0948 105.677C43.3978 105.542 43.7411 105.474 44.1246 105.474C44.6644 105.474 45.0882 105.593 45.396 105.83C45.7061 106.066 45.9263 106.379 46.0565 106.767ZM48.2555 107.719V111H47.4174V103.727H48.2555V106.398H48.3265C48.4544 106.116 48.6461 105.892 48.9018 105.727C49.1599 105.558 49.5031 105.474 49.9316 105.474C50.3033 105.474 50.6288 105.549 50.9082 105.698C51.1876 105.845 51.4042 106.071 51.5581 106.376C51.7143 106.679 51.7924 107.065 51.7924 107.534V111H50.9544V107.591C50.9544 107.158 50.8419 106.823 50.617 106.586C50.3945 106.347 50.0855 106.227 49.6902 106.227C49.4155 106.227 49.1693 106.285 48.9515 106.401C48.7361 106.517 48.5656 106.687 48.4402 106.909C48.3171 107.132 48.2555 107.402 48.2555 107.719ZM55.6126 111.114C55.087 111.114 54.6336 110.998 54.2525 110.766C53.8737 110.531 53.5813 110.205 53.3754 109.786C53.1718 109.364 53.07 108.874 53.07 108.315C53.07 107.757 53.1718 107.264 53.3754 106.838C53.5813 106.41 53.8678 106.076 54.2347 105.837C54.604 105.595 55.0349 105.474 55.5273 105.474C55.8114 105.474 56.092 105.522 56.369 105.616C56.646 105.711 56.8981 105.865 57.1254 106.078C57.3526 106.289 57.5337 106.568 57.6687 106.916C57.8036 107.264 57.8711 107.693 57.8711 108.202V108.557H53.6665V107.832H57.0188C57.0188 107.525 56.9573 107.25 56.8342 107.009C56.7134 106.767 56.5406 106.576 56.3157 106.437C56.0932 106.297 55.8304 106.227 55.5273 106.227C55.1935 106.227 54.9047 106.31 54.6609 106.476C54.4194 106.639 54.2335 106.852 54.1033 107.115C53.9731 107.378 53.908 107.66 53.908 107.96V108.443C53.908 108.855 53.979 109.204 54.1211 109.491C54.2655 109.775 54.4656 109.991 54.7212 110.141C54.9769 110.287 55.274 110.361 55.6126 110.361C55.8327 110.361 56.0316 110.33 56.2092 110.268C56.3891 110.205 56.5442 110.11 56.6744 109.984C56.8046 109.857 56.9052 109.698 56.9762 109.509L57.7859 109.736C57.7006 110.01 57.5574 110.252 57.3562 110.46C57.1549 110.666 56.9064 110.827 56.6104 110.943C56.3145 111.057 55.9819 111.114 55.6126 111.114ZM61.2056 111.114C60.7511 111.114 60.3498 110.999 60.0018 110.769C59.6538 110.537 59.3815 110.21 59.185 109.789C58.9885 109.365 58.8903 108.865 58.8903 108.287C58.8903 107.714 58.9885 107.217 59.185 106.795C59.3815 106.374 59.6549 106.049 60.0053 105.819C60.3557 105.589 60.7605 105.474 61.2198 105.474C61.5749 105.474 61.8555 105.534 62.0614 105.652C62.2698 105.768 62.4284 105.901 62.5373 106.05C62.6486 106.196 62.735 106.317 62.7965 106.412H62.8675V103.727H63.7056V111H62.896V110.162H62.7965C62.735 110.261 62.6474 110.387 62.5337 110.538C62.4201 110.687 62.2579 110.821 62.0472 110.94C61.8365 111.056 61.556 111.114 61.2056 111.114ZM61.3192 110.361C61.6554 110.361 61.9395 110.273 62.1715 110.098C62.4035 109.92 62.5799 109.675 62.7006 109.363C62.8214 109.048 62.8817 108.685 62.8817 108.273C62.8817 107.866 62.8226 107.509 62.7042 107.204C62.5858 106.896 62.4106 106.657 62.1786 106.487C61.9466 106.314 61.6602 106.227 61.3192 106.227C60.9641 106.227 60.6682 106.318 60.4315 106.501C60.1971 106.681 60.0207 106.926 59.9023 107.236C59.7863 107.544 59.7283 107.889 59.7283 108.273C59.7283 108.661 59.7875 109.014 59.9059 109.331C60.0266 109.646 60.2042 109.897 60.4386 110.084C60.6753 110.268 60.9689 110.361 61.3192 110.361ZM68.1552 111V110.361L70.5558 107.733C70.8375 107.425 71.0695 107.158 71.2518 106.93C71.4341 106.701 71.569 106.485 71.6566 106.284C71.7466 106.08 71.7915 105.867 71.7915 105.645C71.7915 105.389 71.73 105.168 71.6069 104.981C71.4862 104.794 71.3204 104.649 71.1097 104.548C70.899 104.446 70.6623 104.395 70.3995 104.395C70.1201 104.395 69.8763 104.453 69.668 104.569C69.462 104.683 69.3022 104.842 69.1886 105.048C69.0773 105.254 69.0217 105.496 69.0217 105.773H68.1836C68.1836 105.347 68.2818 104.973 68.4783 104.651C68.6748 104.329 68.9424 104.078 69.2809 103.898C69.6218 103.718 70.0041 103.628 70.4279 103.628C70.854 103.628 71.2317 103.718 71.5607 103.898C71.8898 104.078 72.1478 104.32 72.3349 104.626C72.5219 104.931 72.6154 105.271 72.6154 105.645C72.6154 105.912 72.5669 106.174 72.4698 106.43C72.3751 106.683 72.2094 106.966 71.9727 107.278C71.7383 107.589 71.4128 107.967 70.9961 108.415L69.3626 110.162V110.219H72.7433V111H68.1552ZM76.582 111.099C76.047 111.099 75.5913 110.954 75.2148 110.663C74.8384 110.369 74.5508 109.944 74.3519 109.388C74.1531 108.829 74.0536 108.154 74.0536 107.364C74.0536 106.578 74.1531 105.906 74.3519 105.35C74.5531 104.791 74.842 104.365 75.2184 104.072C75.5972 103.776 76.0517 103.628 76.582 103.628C77.1123 103.628 77.5657 103.776 77.9421 104.072C78.3209 104.365 78.6097 104.791 78.8086 105.35C79.0098 105.906 79.1104 106.578 79.1104 107.364C79.1104 108.154 79.011 108.829 78.8121 109.388C78.6133 109.944 78.3256 110.369 77.9492 110.663C77.5728 110.954 77.1171 111.099 76.582 111.099ZM76.582 110.318C77.1123 110.318 77.5243 110.062 77.8178 109.551C78.1114 109.04 78.2582 108.311 78.2582 107.364C78.2582 106.734 78.1907 106.198 78.0558 105.755C77.9232 105.312 77.7314 104.975 77.4805 104.743C77.2319 104.511 76.9324 104.395 76.582 104.395C76.0565 104.395 75.6457 104.654 75.3498 105.173C75.0539 105.689 74.9059 106.419 74.9059 107.364C74.9059 107.993 74.9722 108.528 75.1048 108.969C75.2373 109.409 75.4279 109.744 75.6765 109.974C75.9274 110.203 76.2293 110.318 76.582 110.318ZM80.4599 111V110.361L82.8604 107.733C83.1422 107.425 83.3742 107.158 83.5565 106.93C83.7388 106.701 83.8737 106.485 83.9613 106.284C84.0513 106.08 84.0962 105.867 84.0962 105.645C84.0962 105.389 84.0347 105.168 83.9116 104.981C83.7908 104.794 83.6251 104.649 83.4144 104.548C83.2037 104.446 82.967 104.395 82.7042 104.395C82.4248 104.395 82.181 104.453 81.9727 104.569C81.7667 104.683 81.6069 104.842 81.4933 105.048C81.382 105.254 81.3263 105.496 81.3263 105.773H80.4883C80.4883 105.347 80.5865 104.973 80.783 104.651C80.9795 104.329 81.247 104.078 81.5856 103.898C81.9265 103.718 82.3088 103.628 82.7326 103.628C83.1587 103.628 83.5363 103.718 83.8654 103.898C84.1945 104.078 84.4525 104.32 84.6396 104.626C84.8266 104.931 84.9201 105.271 84.9201 105.645C84.9201 105.912 84.8716 106.174 84.7745 106.43C84.6798 106.683 84.5141 106.966 84.2773 107.278C84.043 107.589 83.7174 107.967 83.3008 108.415L81.6673 110.162V110.219H85.0479V111H80.4599ZM89.0714 103.727V111H88.1907V104.651H88.1481L86.3725 105.83V104.935L88.1907 103.727H89.0714Z" fill="black"/>
<path d="M17.8239 18.9091H24.7131L31.3466 31.4375H31.6307L38.2642 18.9091H45.1534L34.5426 37.7159V48H28.4347V37.7159L17.8239 18.9091ZM48.5128 48V18.9091H54.6634V42.929H67.1349V48H48.5128Z" fill="black"/>
<path d="M19.5284 53.9091H27.1136L35.125 73.4545H35.4659L43.4773 53.9091H51.0625V83H45.0966V64.0653H44.8551L37.3267 82.858H33.2642L25.7358 63.9943H25.4943V83H19.5284V53.9091ZM81.7976 64.0938H75.576C75.4624 63.2888 75.2304 62.5739 74.88 61.9489C74.5296 61.3144 74.0798 60.7746 73.5305 60.3295C72.9813 59.8845 72.3468 59.5436 71.6271 59.3068C70.9169 59.0701 70.1451 58.9517 69.3118 58.9517C67.8061 58.9517 66.4946 59.3258 65.3771 60.0739C64.2597 60.8125 63.3932 61.892 62.7777 63.3125C62.1622 64.7235 61.8544 66.4375 61.8544 68.4545C61.8544 70.5284 62.1622 72.2708 62.7777 73.6818C63.4027 75.0928 64.2739 76.1581 65.3913 76.8778C66.5088 77.5975 67.8014 77.9574 69.2692 77.9574C70.093 77.9574 70.8554 77.8485 71.5561 77.6307C72.2663 77.4129 72.8961 77.0956 73.4453 76.679C73.9946 76.2528 74.4491 75.7367 74.8089 75.1307C75.1783 74.5246 75.4339 73.8333 75.576 73.0568L81.7976 73.0852C81.6366 74.4205 81.2341 75.7083 80.5902 76.9489C79.9557 78.1799 79.0987 79.2831 78.0192 80.2585C76.9491 81.2244 75.6707 81.9915 74.1839 82.5597C72.7067 83.1184 71.0353 83.3977 69.1697 83.3977C66.575 83.3977 64.255 82.8106 62.2095 81.6364C60.1735 80.4621 58.5637 78.7623 57.38 76.5369C56.2057 74.3116 55.6186 71.6174 55.6186 68.4545C55.6186 65.2822 56.2152 62.5833 57.4084 60.358C58.6016 58.1326 60.2209 56.4375 62.2663 55.2727C64.3118 54.0985 66.6129 53.5114 69.1697 53.5114C70.8554 53.5114 72.4179 53.7481 73.8572 54.2216C75.3061 54.6951 76.5893 55.3864 77.7067 56.2955C78.8241 57.1951 79.7332 58.2983 80.4339 59.6051C81.1442 60.9119 81.5987 62.4081 81.7976 64.0938Z" fill="black"/>
</svg>
